<?xml version="1.0" encoding="utf-8"?>
<!-- Generator: Adobe Illustrator 29.4.0, SVG Export Plug-In . SVG Version: 9.03 Build 0)  -->
<svg version="1.0" id="Livello_1" xmlns="http://www.w3.org/2000/svg" xmlns:xlink="http://www.w3.org/1999/xlink" x="0px" y="0px"
	 viewBox="0 0 268 148" style="enable-background:new 0 0 268 148;" xml:space="preserve">
<style type="text/css">
	.st0{opacity:0.6;fill:#FFFFFF;enable-background:new    ;}
	.st1{fill:#FFFFFF;}
</style>
<path class="st0" d="M64.6,148H43.5l-15.2-44.5H0V87.7h22.9L0.2,20.3L0,20.9V0h12.6L64.6,148z"/>
<path class="st1" d="M60.2,60h-3V39.1h-7.8v-2.7H68v2.7h-7.7L60.2,60L60.2,60z"/>
<path class="st1" d="M85,38.4V39H71.2v9.5h13v0.6h-13v10.4h13.9v0.6H70.6V38.5L85,38.4L85,38.4z"/>
<path class="st1" d="M106.2,51.6c-0.2,2-0.8,3.9-2,5.4c-0.9,1.2-2,2.1-3.3,2.7c-1.3,0.6-2.6,0.9-4,0.9s-3-0.3-4.3-1
	s-2.4-1.6-3.3-2.8c-1.5-2-2.2-4.5-2.2-7.5s0.9-5.9,2.6-8C91.5,39.1,94,38,97,38s5,0.9,6.7,2.8c1.2,1.2,1.9,2.7,2.1,4.2h-0.6
	c-0.3-1.5-0.9-2.7-1.9-3.8c-1.6-1.8-3.8-2.7-6.4-2.7s-5.3,1.1-7.1,3.5c-1.5,1.9-2.2,4.4-2.2,7.3s0.7,5.2,2,7
	c0.9,1.3,2.1,2.3,3.5,2.9c1.2,0.5,2.4,0.8,3.7,0.8s2.7-0.3,3.8-0.8c1.2-0.6,2.2-1.4,3-2.4c1.1-1.4,1.7-3.1,2-5.1h0.6L106.2,51.6z"/>
<path class="st1" d="M125.5,38.4V60h-0.7l-15-20.8V60h-0.6V38.4h0.8l14.9,20.7V38.4C124.9,38.4,125.5,38.4,125.5,38.4z"/>
<path class="st1" d="M139,37.9c1.9,0,3.7,0.5,5.3,1.6s2.9,2.6,3.7,4.4c0.7,1.6,1,3.5,1,5.5c0,3-0.8,5.5-2.4,7.4
	c-1.9,2.4-4.5,3.6-7.8,3.6s-5.8-1.2-7.6-3.6c-1.6-2.1-2.4-4.7-2.4-7.7s0.9-6,2.7-8.1c1.9-2.2,4.4-3.3,7.5-3.3 M139,38.5
	c-2.9,0-5.2,1-7,3.1c-1.7,2-2.6,4.5-2.6,7.6s0.8,5.3,2.3,7.3c1.7,2.3,4.1,3.5,7.1,3.5s5.5-1.1,7.3-3.5c1.5-1.9,2.2-4.2,2.2-7.1
	s-0.9-5.8-2.6-7.8c-1.8-2-4-3.1-6.8-3.1"/>
<path class="st1" d="M156.4,52.9l-2.5,7.1h-3.2l8.4-23.6h3.9l8.3,23.6h-3.4l-2.4-7.1H156.4z M161.1,39.7l-3.9,10.8h7.5L161.1,39.7
	L161.1,39.7z"/>
<path class="st1" d="M173.9,38.4h8.6c2,0,3.6,0.3,4.6,1c1.6,1,2.3,2.5,2.3,4.6s-0.8,3.6-2.5,4.6c-0.6,0.4-1.5,0.7-2.5,0.8
	c0.9,0.1,1.6,0.3,2,0.4c0.5,0.2,0.9,0.4,1.3,0.8c0.5,0.5,0.9,1.1,1.1,1.8c0.2,0.7,0.3,2,0.4,3.9c0,1.9,0.2,2.9,0.3,3.2v0.3
	c0.1,0-0.5,0-0.5,0c-0.2-0.3-0.4-1.5-0.4-3.7c0-1.9-0.2-3.2-0.4-3.9s-0.6-1.2-1.3-1.7c-0.5-0.3-1.2-0.6-1.9-0.7
	c-0.8-0.1-1.8-0.2-3.1-0.2h-7.3v10.2H174V38.2l0,0L173.9,38.4z M174.5,39v10.3h7.1c2.1,0,3.8-0.3,4.9-1c1.5-0.9,2.3-2.3,2.3-4.2
	s-0.7-3.1-2-4c-1-0.7-2.6-1.1-4.6-1.1H174.5L174.5,39z"/>
<path class="st1" d="M193.1,38.4h8.6c2,0,3.6,0.3,4.6,1c1.6,1,2.3,2.5,2.3,4.6s-0.8,3.6-2.5,4.6c-0.6,0.4-1.5,0.7-2.5,0.8
	c0.9,0.1,1.6,0.3,2,0.4c0.5,0.2,0.9,0.4,1.3,0.8c0.5,0.5,0.9,1.1,1.1,1.8c0.2,0.7,0.3,2,0.4,3.9c0,1.9,0.2,2.9,0.3,3.2v0.3
	c0.1,0-0.5,0-0.5,0c-0.2-0.3-0.4-1.5-0.4-3.7c0-1.9-0.2-3.2-0.4-3.9s-0.6-1.2-1.3-1.7c-0.5-0.3-1.2-0.6-1.9-0.7
	c-0.8-0.1-1.8-0.2-3.1-0.2h-7.3v10.2h-0.6V38.2l0,0L193.1,38.4z M193.7,39v10.3h7.1c2.1,0,3.8-0.3,4.9-1c1.5-0.9,2.3-2.3,2.3-4.2
	s-0.7-3.1-2-4c-1-0.7-2.6-1.1-4.6-1.1H193.7L193.7,39z"/>
<path class="st1" d="M226.7,38.4V39h-13.8v9.5h13v0.6h-13v10.4h13.9v0.6h-14.5V38.5L226.7,38.4L226.7,38.4z"/>
<path class="st1" d="M229.5,38.4h7.1c1.4,0,2.7,0.2,3.8,0.6c1.1,0.4,2.1,1,2.9,1.7c1,0.9,1.7,2.1,2.2,3.5s0.8,3,0.8,4.7
	c0,3.7-1,6.6-3,8.6c-0.9,0.9-1.8,1.5-2.9,1.9c-1.1,0.4-2.4,0.6-3.9,0.6h-6.9V38.4l0,0H229.5z M230.1,39v20.5h5.9
	c1.5,0,2.8-0.2,3.8-0.5s1.9-0.9,2.7-1.6c2-1.9,3-4.6,3-8.3s-0.9-5.8-2.6-7.6c-0.8-0.8-1.7-1.5-2.8-1.8c-1.1-0.4-2.3-0.6-3.9-0.6
	h-6.3L230.1,39z"/>
<path class="st1" d="M257.2,38.4l8.7,21.6h-0.7l-2.8-7.1h-11l-2.9,7.1h-0.7l8.9-21.6h0.6H257.2z M262.1,52.3l-5.2-13.1l-5.3,13.1
	L262.1,52.3L262.1,52.3L262.1,52.3z"/>
<path class="st1" d="M141.2,75.5v-1.4l2.8-1.2l-2.8-1.2v-1.4l4.3,2v1.3l-4.3,2V75.5z"/>
<path class="st1" d="M151.5,67.5h-0.8v7.9h0.8V67.5z"/>
<path class="st1" d="M161.3,67.5v7.9h-1.1l-2.5-6.9l0,0v6.9H157v-7.9h1.1l2.5,6.8l0,0v-6.8H161.3z"/>
<path class="st1" d="M170.2,67.5v0.9h-1.7v7h-0.8v-7H166v-0.9H170.2L170.2,67.5z"/>
<path class="st1" d="M174.8,75.5v-7.9h3.3v0.9h-2.5V71h2.3v0.9h-2.3v2.7h2.5v0.9H174.8z"/>
<path class="st1" d="M183.9,71.8v3.6h-0.8v-7.9h2.2c1.1,0,1.5,1,1.5,2s-0.4,1.6-1.2,1.8l0,0c0.7,0.2,1,0.5,1,2.1
	c0,0.3,0,1.6,0.2,2.1H186c-0.2-0.5-0.2-1.6-0.2-2.6s-0.7-1-1-1L183.9,71.8L183.9,71.8z M183.9,70.9h1.2c0.6,0,0.9-0.6,0.9-1.3
	s-0.2-1.2-0.9-1.2h-1.2V70.9z"/>
<path class="st1" d="M192.7,67.5h-0.8v7.9h0.8V67.5z"/>
<path class="st1" d="M198.1,72.6V70c0-1.6,0.6-2.6,2-2.6s2,1,2,2.6v2.6c0,2.2-0.6,3.1-2,3.1S198.1,74.8,198.1,72.6z M201.3,72.6
	v-2.7c0-1.7-0.9-1.7-1.2-1.7s-1.2,0-1.2,1.7v2.7c0,1.7,0.4,2.2,1.2,2.2S201.3,74.4,201.3,72.6z"/>
<path class="st1" d="M208.1,71.8v3.6h-0.8v-7.9h2.2c1.1,0,1.5,1,1.5,2s-0.4,1.6-1.2,1.8l0,0c0.7,0.2,1,0.5,1,2.1
	c0,0.3,0,1.6,0.2,2.1h-0.8c-0.2-0.5-0.2-1.6-0.2-2.6s-0.7-1-1-1L208.1,71.8L208.1,71.8z M208.1,70.9h1.2c0.6,0,0.9-0.6,0.9-1.3
	s-0.2-1.2-0.9-1.2h-1.2V70.9z"/>
<path class="st1" d="M221.9,67.5h1.9c0.8,0,1.4,0.4,1.7,1.2c0.3,0.7,0.3,2.3,0.3,2.5c0,1.7-0.1,2.7-0.4,3.2c-0.3,0.7-1,1-2.1,1h-1.5
	v-7.9l0,0L221.9,67.5z M222.7,74.6h0.8c1.1,0,1.5-0.5,1.5-2.4v-1.6c0-1.6-0.4-2.2-1.2-2.2h-1.1V74.6L222.7,74.6z"/>
<path class="st1" d="M231.1,75.5v-7.9h3.3v0.9h-2.5V71h2.3v0.9h-2.3v2.7h2.5v0.9H231.1z"/>
<path class="st1" d="M240,73.1v0.2c0,1.1,0.5,1.4,1.1,1.4s1.1-0.3,1.1-1.3c0-1.8-2.8-1.6-2.8-3.9s0.8-2.2,1.9-2.2s1.8,0.7,1.8,2.3
	h-0.8c0-0.9-0.2-1.4-1-1.4s-1,0.3-1,1.2c0,1.7,2.8,1.5,2.8,4s-0.9,2.2-2,2.2c-1.9,0-1.9-1.8-1.9-2.5L240,73.1L240,73.1z"/>
<path class="st1" d="M249,67.5h-0.8v7.9h0.8V67.5z"/>
<path class="st1" d="M257.4,69.6c0-0.9-0.3-1.4-1.1-1.4s-1.2,0-1.2,1.7v2.7c0,1.7,0.4,2.2,1.2,2.2c0.8,0,1-0.2,1.1-0.3v-2.4h-1.2
	v-0.9h2v3.9c-0.5,0.3-1.1,0.6-1.9,0.6c-1.3,0-2-0.9-2-3.1V70c0-1.6,0.6-2.6,2-2.6s2,0.6,2,2.3h-0.8l0,0L257.4,69.6z"/>
<path class="st1" d="M268,67.5v7.9h-1.1l-2.5-6.9l0,0v6.9h-0.7v-7.9h1.1l2.5,6.8l0,0v-6.8H268z"/>
</svg>
